<svg xmlns="http://www.w3.org/2000/svg" style="display: none;">
  <!-- Icône Google -->
  <symbol id="google" viewBox="0 0 48 48">
    <path fill="#FBC02D" d="M43.611,20.083H42V20H24v8h11.303c-1.649,4.657-6.08,8-11.303,8c-6.627,0-12-5.373-12-12 s5.373-12,12-12c3.059,0,5.842,1.154,7.961,3.039l5.657-5.657C34.046,6.053,29.268,4,24,4C12.955,4,4,12.955,4,24s8.955,20,20,20 s20-8.955,20-20C44,22.659,43.862,21.35,43.611,20.083z"></path>
    <path fill="#E53935" d="M6.306,14.691l6.571,4.819C14.655,15.108,18.961,12,24,12c3.059,0,5.842,1.154,7.961,3.039 l5.657-5.657C34.046,6.053,29.268,4,24,4C16.318,4,9.656,8.337,6.306,14.691z"></path>
    <path fill="#4CAF50" d="M24,44c5.166,0,9.86-1.977,13.409-5.192l-6.19-5.238C29.211,35.091,26.715,36,24,36 c-5.202,0-9.619-3.317-11.283-7.946l-6.522,5.025C9.505,39.556,16.227,44,24,44z"></path>
    <path fill="#1565C0" d="M43.611,20.083L43.595,20L42,20H24v8h11.303c-0.792,2.237-2.231,4.166-4.087,5.571 c0.001-0.001,0.002-0.001,0.003-0.002l6.19,5.238C36.971,39.205,44,34,44,24C44,22.659,43.862,21.35,43.611,20.083z"></path>
  </symbol>

  <!-- Icône GitHub -->
  <symbol id="github" viewBox="0 0 24 24">
    <circle cx="12" cy="12.3" r="12" fill="white"/>
    <path fill="#181717" d="M12 .297c-6.63 0-12 5.373-12 12 0 5.303 3.438 9.8 8.205 11.385.6.113.82-.258.82-.577 0-.285-.01-1.04-.015-2.04-3.338.725-4.042-1.61-4.042-1.61-.546-1.387-1.333-1.756-1.333-1.756-1.09-.744.083-.729.083-.729 1.205.084 1.838 1.237 1.838 1.237 1.07 1.835 2.807 1.305 3.492.998.108-.775.418-1.305.762-1.605-2.665-.3-5.466-1.335-5.466-5.93 0-1.31.465-2.382 1.235-3.222-.123-.303-.534-1.523.117-3.176 0 0 1.007-.322 3.3 1.23a11.49 11.49 0 0 1 3-.405c1.02.005 2.045.138 3 .405 2.29-1.552 3.297-1.23 3.297-1.23.653 1.653.242 2.873.12 3.176.77.84 1.231 1.912 1.231 3.222 0 4.607-2.807 5.625-5.479 5.92.429.37.823 1.102.823 2.222 0 1.606-.015 2.898-.015 3.293 0 .322.218.694.825.577C20.565 22.092 24 17.592 24 12.297c0-6.627-5.373-12-12-12"/>
  </symbol>
</svg>
