<?xml version="1.0" encoding="utf-8"?>
<!-- Generator: Adobe Illustrator 27.5.0, SVG Export Plug-In . SVG Version: 6.00 Build 0)  -->
<svg version="1.1" id="Layer_1" xmlns="http://www.w3.org/2000/svg" xmlns:xlink="http://www.w3.org/1999/xlink" x="0px" y="0px"
	 viewBox="0 0 3000 2000" style="enable-background:new 0 0 3000 2000;" xml:space="preserve">
<g>
	<rect id="Background" x="-0.153" y="-0.047" style="fill:#FFFFFF;" width="3000" height="2000"/>
	<g>
		<g>
			<path style="fill:#F6F5F5;" d="M2268.723,1162.265c27.687-34.552,52.604-71.745,74.281-111.606
				c51.048-93.874,74.097-199.683,64.169-306.593c-12.31-132.565-93.185-264.156-227.008-302.744
				c-118.697-34.226-222.38,32.691-306.222,110.279c-62.674,57.999-122.971,121.284-201.207,158.487
				c-83.343,39.632-191.884,38.846-282.266,31.492c-122.23-9.945-239.593-46.3-361.633-54.495
				c-125.248-8.41-266.936,22.761-355.441,117.631c-104.828,112.367-91.128,285.451-13.601,409.013
				c8.31,13.245,17.362,26.025,27.12,38.246c91.879,115.082,232.585,185.045,374.137,217.347
				c317.77,72.515,678.364,62.434,966.599-103.332C2119.378,1313.239,2202.444,1244.979,2268.723,1162.265z"/>
			<path style="fill:none;stroke:#F6F5F5;stroke-width:10;stroke-miterlimit:10;" d="M2259.816,1268.291
				c33.713-31.572,64.96-66.283,93.254-104.229c66.635-89.364,106.127-195.205,111.731-307.074
				c6.949-138.713-57.048-286.59-189.511-346.282c-117.492-52.945-234.48,0.776-332.562,68.46
				c-73.319,50.595-144.968,107.002-231.272,133.815c-91.938,28.564-203.902,11.655-296.141-9.343
				c-124.74-28.397-240.539-83.343-365.344-109.904c-128.085-27.259-279.016-16.085-384.476,68.753
				c-124.91,100.484-136.433,281.244-74.704,420.333c6.617,14.91,14.069,29.449,22.332,43.516
				c77.807,132.461,212.726,225.573,354.103,279.921c317.378,122.007,691.224,165.076,1013.443,36.651
				C2083.211,1402.04,2179.109,1343.873,2259.816,1268.291z"/>
		</g>
		<g style="opacity:0.6;">
			<g>
				<g>
					<g>
						<path style="fill:#FBC343;" d="M1089.388,971.336c0,0,3.007-0.014,6.789-0.032c2.156-0.01,4.873-0.023,6.102-0.029
							c0.919-0.004,1.464-0.007,1.464-0.007s-0.345,4.148-0.225,9.74c0.114,2.968,0.75,6.749,2.886,9.718
							c0.692,1.915,1.538,3.664,2.572,5.136c0.475,0.676,0.069,1.735-0.648,1.842c-2.23,0.332-4.193,0.687-5.926,1.029
							c-3.775,1.636-5.131,2.986-6.102,0.02c-0.645-0.89-1.209-2.17-1.817-3.95c-0.389-1.14-0.76-2.502-1.111-4.014
							c-1.299-2.815-2.323-6.676-3.004-9.717C1089.733,975.522,1089.388,971.336,1089.388,971.336z"/>
					</g>
				</g>
			</g>
			<g>
				<g>
					<g>
						<path style="fill:#9490E6;" d="M1077.461,858.067c0,0,1.399,2.662,3.158,6.01c0.424,0.807,0.959,1.825,1.2,2.285
							c0.427,0.813,0.681,1.296,0.681,1.296s3.492-2.27,8.472-4.813c1.258-0.555,3.088-0.828,5.291,0.404
							c2.012-0.297,3.948-0.377,5.731-0.162c0.818,0.099,1.56-0.761,1.318-1.445c-0.754-2.127-1.363-4.028-1.875-5.72
							c0.684-2.176,1.602-3.318-1.209-2.281c-1.086-0.148-2.479-0.04-4.331,0.267c-1.186,0.197-2.56,0.514-4.057,0.92
							c-1.748-0.526-3.793-0.579-5.346-0.509C1081.31,856.389,1077.461,858.067,1077.461,858.067z"/>
					</g>
				</g>
			</g>
			<g>
				<g>
					<g>
						<path style="fill:#8CBFBE;" d="M666.978,1068.459c0,0,2.831,1.014,6.392,2.289c3.291,1.178,7.438,2.663,9.314,3.335
							c0.865,0.31,1.379,0.494,1.379,0.494s-1.658,3.811-3.343,9.147c-1.366,4.402-2.646,10.179-2.113,15.279
							c0.034,2.05,0.268,3.995,0.767,5.743c0.229,0.803-0.493,1.667-1.201,1.523c-2.203-0.447-4.162-0.782-5.901-1.05
							c-6.286-0.532-8.792-0.002-9.312-3.344c-0.32-1.063-0.439-2.469-0.438-4.361c0.001-1.212,0.09-2.629,0.245-4.182
							c0.178-4.585,1.132-10.614,2.002-15.319C665.958,1072.542,666.978,1068.459,666.978,1068.459z"/>
					</g>
				</g>
			</g>
			<g>
				<g>
					<g>
						<path style="fill:#708CD5;" d="M600.525,824.705c0,0-1.852,2.369-4.181,5.349c-1.779,2.276-4.019,5.143-5.033,6.44
							c-0.566,0.724-0.902,1.154-0.902,1.154s3.406,2.376,7.639,6.041c2.626,2.329,5.672,5.684,7.063,9.614
							c1.052,1.77,1.88,3.556,2.381,5.314c0.23,0.807,1.294,1.163,1.815,0.663c1.621-1.552,3.095-2.878,4.42-4.031
							c4.361-2.953,6.516-3.528,5.026-6.446c-0.291-1.078-0.931-2.342-1.93-3.959c-0.639-1.035-1.461-2.199-2.411-3.443
							c-1.763-3.151-4.644-6.874-6.99-9.707C603.537,827.651,600.525,824.705,600.525,824.705z"/>
					</g>
				</g>
			</g>
			<g>
				<g>
					<g>
						<path style="fill:#FBC343;" d="M857.288,490.473c0,0,2.966,0.499,6.695,1.127c1.676,0.282,3.788,0.637,4.743,0.798
							c0.906,0.152,1.444,0.243,1.444,0.243s-1.003,4.036-1.778,9.576c-0.268,2.357-0.127,5.441,1.597,8.142
							c0.376,2.009,0.931,3.879,1.715,5.509c0.36,0.749-0.209,1.724-0.933,1.707c-2.251-0.053-4.241-0.038-6.004,0.004
							c-3.191,1.104-4.459,2.253-4.742-0.807c-0.493-0.989-0.845-2.349-1.159-4.21c-0.201-1.191-0.349-2.599-0.454-4.152
							c-0.919-2.437-1.433-5.651-1.714-8.162C856.961,494.664,857.288,490.473,857.288,490.473z"/>
					</g>
				</g>
			</g>
			<g>
				<g>
					<g>
						<path style="fill:#FBC343;" d="M789.883,586.111c0,0-2.966,0.499-6.695,1.127c-1.676,0.282-3.788,0.637-4.743,0.798
							c-0.906,0.152-1.444,0.243-1.444,0.243s1.003,4.036,1.777,9.576c0.268,2.357,0.127,5.442-1.597,8.142
							c-0.376,2.009-0.931,3.879-1.715,5.509c-0.36,0.749,0.209,1.724,0.933,1.707c2.251-0.053,4.241-0.037,6.004,0.004
							c3.191,1.104,4.459,2.253,4.742-0.807c0.493-0.989,0.845-2.349,1.159-4.209c0.201-1.191,0.349-2.599,0.454-4.153
							c0.918-2.437,1.433-5.651,1.714-8.162C790.211,590.302,789.883,586.111,789.883,586.111z"/>
					</g>
				</g>
			</g>
			<g>
				<g>
					<g>
						<path style="fill:#FBC343;" d="M1235.642,420.736c0,0-2.959,0.533-6.682,1.204c-0.879,0.159-1.988,0.358-2.489,0.449
							c-0.904,0.163-1.441,0.26-1.441,0.26s1.047,4.025,1.882,9.556c0.123,1.335-0.203,3.124-2.07,4.823
							c-0.354,2.014-0.888,3.89-1.654,5.53c-0.352,0.753,0.228,1.722,0.952,1.697c2.25-0.079,4.24-0.087,6.003-0.065
							c1.811,1.318,2.59,2.542,2.488-0.458c0.482-0.994,0.819-2.359,1.113-4.223c0.188-1.194,0.321-2.604,0.409-4.158
							c1.055-1.48,1.757-3.374,2.187-4.844C1236.016,424.923,1235.642,420.736,1235.642,420.736z"/>
					</g>
				</g>
			</g>
			<g>
				<g>
					<g>
						<path style="fill:#EE6F57;" d="M1474.569,420.111c0,0,3.006,0.09,6.786,0.204c1.061,0.032,2.398,0.072,3.002,0.09
							c0.918,0.027,1.464,0.044,1.464,0.044s-0.48,4.134-0.542,9.727c0.057,1.568,0.62,3.581,2.698,5.215
							c0.629,1.938,1.418,3.715,2.404,5.223c0.453,0.693,0.013,1.736-0.708,1.818c-2.24,0.255-4.213,0.541-5.956,0.822
							c-1.906,1.562-2.614,2.884-3.002-0.099c-0.615-0.912-1.138-2.211-1.688-4.011c-0.352-1.152-0.678-2.527-0.981-4.051
							c-1.244-1.526-2.193-3.594-2.816-5.219C1474.779,424.307,1474.569,420.111,1474.569,420.111z"/>
					</g>
				</g>
			</g>
			<g>
				<g>
					<g>
						<path style="fill:#8CBFBE;" d="M1319.09,536.938c0,0,0.562-2.954,1.268-6.67c0.254-1.338,0.575-3.023,0.72-3.785
							c0.172-0.903,0.274-1.439,0.274-1.439s4.007,1.128,9.519,2.073c1.935,0.263,4.493,0.117,6.813-1.605
							c2.013-0.315,3.891-0.813,5.535-1.548c0.755-0.338,1.716,0.262,1.684,0.986c-0.101,2.252-0.129,4.246-0.125,6.012
							c1.144,2.647,2.303,3.742-0.729,3.784c-0.997,0.463-2.362,0.774-4.226,1.032c-1.193,0.165-2.602,0.27-4.154,0.328
							c-2.061,0.919-4.745,1.437-6.836,1.721C1323.265,537.395,1319.09,536.938,1319.09,536.938z"/>
					</g>
				</g>
			</g>
			<g>
				<g>
					<g>
						<path style="fill:#8CBFBE;" d="M997.464,611.864c0,0-2.911-0.754-6.573-1.703c-1.933-0.501-4.368-1.132-5.47-1.417
							c-0.889-0.23-1.417-0.367-1.417-0.367s-0.754,4.088-2.338,9.454c-0.825,2.602-2.351,5.796-5.136,7.9
							c-1.173,1.678-2.453,3.157-3.842,4.323c-0.638,0.536-0.522,1.657,0.145,1.937c2.075,0.87,3.884,1.695,5.474,2.452
							c2.958,2.438,3.821,4.049,5.472,1.408c0.858-0.7,1.742-1.797,2.798-3.365c0.676-1.004,1.393-2.227,2.131-3.6
							c1.936-2.174,3.858-5.343,5.25-7.87C996.03,615.818,997.464,611.864,997.464,611.864z"/>
					</g>
				</g>
			</g>
			<g>
				<g>
					<g>
						<path style="fill:#FBC343;" d="M1690.338,484.464c0,0-1.005,2.834-2.269,6.399c-0.825,2.326-1.864,5.258-2.334,6.584
							c-0.307,0.866-0.489,1.38-0.489,1.38s-3.756-1.815-9.017-3.71c-2.674-0.907-6.246-1.602-9.606-0.607
							c-2.023-0.037-3.941,0.132-5.667,0.576c-0.792,0.204-1.643-0.558-1.5-1.271c0.445-2.218,0.778-4.191,1.046-5.945
							c-0.066-4.655-0.801-6.602,2.343-6.581c1.049-0.287,2.436-0.358,4.303-0.291c1.196,0.043,2.593,0.184,4.124,0.396
							c2.939-0.26,6.714,0.096,9.646,0.495C1686.313,483.286,1690.338,484.464,1690.338,484.464z"/>
					</g>
				</g>
			</g>
			<g>
				<g>
					<g>
						<path style="fill:#EE6F57;" d="M1253.98,712.402c0,0-1.005,2.834-2.269,6.399c-0.825,2.327-1.864,5.258-2.334,6.584
							c-0.307,0.866-0.489,1.38-0.489,1.38s-3.756-1.815-9.017-3.71c-2.674-0.907-6.246-1.602-9.606-0.607
							c-2.023-0.037-3.941,0.132-5.667,0.576c-0.792,0.204-1.643-0.558-1.5-1.271c0.445-2.218,0.779-4.191,1.046-5.945
							c-0.066-4.655-0.801-6.602,2.343-6.581c1.049-0.287,2.436-0.358,4.303-0.291c1.196,0.043,2.593,0.183,4.124,0.396
							c2.939-0.26,6.714,0.096,9.646,0.495C1249.955,711.224,1253.98,712.402,1253.98,712.402z"/>
					</g>
				</g>
			</g>
			<g>
				<g>
					<g>
						<path style="fill:#EE6F57;" d="M1940.386,648.778c0,0-1.005,2.834-2.269,6.399c-0.825,2.326-1.864,5.258-2.334,6.584
							c-0.307,0.866-0.489,1.38-0.489,1.38s-3.756-1.815-9.017-3.71c-2.674-0.907-6.247-1.602-9.606-0.607
							c-2.023-0.037-3.942,0.132-5.667,0.576c-0.792,0.204-1.643-0.558-1.5-1.271c0.445-2.218,0.778-4.191,1.046-5.945
							c-0.066-4.655-0.801-6.602,2.343-6.581c1.049-0.287,2.436-0.358,4.303-0.291c1.196,0.043,2.593,0.183,4.124,0.396
							c2.939-0.26,6.714,0.096,9.646,0.495C1936.361,647.6,1940.386,648.778,1940.386,648.778z"/>
					</g>
				</g>
			</g>
			<g>
				<g>
					<g>
						<path style="fill:#D3D3D3;" d="M1578.245,694.906c0,0,2.346-1.881,5.297-4.246c1.979-1.586,4.471-3.584,5.599-4.489
							c0.717-0.575,1.142-0.916,1.142-0.916s2.203,3.549,5.63,7.968c2.005,2.51,4.944,5.403,8.534,6.657
							c1.684,1.109,3.389,1.988,5.077,2.529c0.775,0.248,1.089,1.351,0.59,1.883c-1.549,1.654-2.874,3.158-4.028,4.511
							c-2.5,4.078-2.945,6.156-5.605,4.481c-1.035-0.315-2.241-0.993-3.778-2.045c-0.984-0.674-2.087-1.538-3.264-2.535
							c-2.834-1.641-6.129-4.362-8.626-6.583C1581.012,698.055,1578.245,694.906,1578.245,694.906z"/>
					</g>
				</g>
			</g>
			<g>
				<g>
					<g>
						<path style="fill:#9490E6;" d="M1574.364,433.667c0,0-3,0.208-6.773,0.469c-1.458,0.101-3.294,0.228-4.125,0.286
							c-0.917,0.064-1.461,0.101-1.461,0.101s0.631,4.113,0.897,9.7c0.033,2.078-0.413,4.761-2.397,6.987
							c-0.558,1.962-1.281,3.768-2.211,5.314c-0.427,0.71,0.051,1.736,0.774,1.789c2.247,0.167,4.229,0.376,5.981,0.589
							c2.661,1.438,3.669,2.715,4.125-0.295c0.581-0.936,1.056-2.254,1.539-4.075c0.309-1.165,0.585-2.552,0.832-4.087
							c1.156-2.057,1.986-4.824,2.515-6.995C1574.308,437.868,1574.364,433.667,1574.364,433.667z"/>
					</g>
				</g>
			</g>
			<g>
				<g>
					<g>
						<path style="fill:#FBC343;" d="M1464.57,289.427c0,0,2.67-2.591,6.027-5.849c0.154-0.15,0.349-0.338,0.437-0.424
							c0.791-0.767,1.275-1.237,1.275-1.237s3.351,4.172,8.39,9.294c0.273,0.106,1.056-0.181,3.125-1.816
							c2.294,1.184,4.591,2.092,6.812,2.581c1.02,0.225,1.592,1.562,1.046,2.277c-1.697,2.222-3.134,4.235-4.354,6.016l-0.445,0.415
							c-1.36-0.279-2.993-0.992-5.105-2.134c-1.352-0.732-2.885-1.686-4.52-2.785c-1.316,0.925-2.449,1.541-3.231,1.919
							C1468.571,293.041,1464.57,289.427,1464.57,289.427z"/>
					</g>
				</g>
			</g>
			<g>
				<g>
					<g>
						<path style="fill:#708CD5;" d="M1697.504,359.225c0,0-1.531,2.588-3.457,5.843c-0.925,1.563-2.09,3.533-2.618,4.424
							c-0.468,0.791-0.746,1.26-0.746,1.26s-3.319-2.533-8.094-5.445c-1.843-1.048-4.441-1.962-7.32-1.273
							c-1.969-0.439-3.878-0.655-5.65-0.562c-0.814,0.043-1.498-0.876-1.22-1.549c0.865-2.093,1.573-3.968,2.175-5.64
							c0.255-3.608-0.296-5.315,2.625-4.419c1.081-0.073,2.45,0.133,4.262,0.571c1.16,0.281,2.499,0.697,3.954,1.211
							c2.357-0.028,5.203,0.582,7.38,1.172C1693.799,357.264,1697.504,359.225,1697.504,359.225z"/>
					</g>
				</g>
			</g>
			<g>
				<g>
					<g>
						<path style="fill:#EE6F57;" d="M2187.373,432.069c0,0-3.438-2.484-7.762-5.609c-0.523-0.378-1.182-0.854-1.48-1.069
							c-1.05-0.759-1.674-1.21-1.674-1.21s-2.858,5.151-7.381,11.613c-0.621,0.665-1.972,1.108-4.906,0.105
							c-2.296,1.68-4.638,3.036-6.979,3.916c-1.075,0.404-1.44,1.979-0.701,2.693c2.298,2.22,4.271,4.246,5.99,6.07
							c-0.36,2.556-1.09,4.366,1.488,1.059c1.437-0.515,3.089-1.554,5.182-3.144c1.34-1.018,2.834-2.312,4.424-3.798
							c1.95,0.351,3.76,0.208,5.041-0.008C2183.693,436.697,2187.373,432.069,2187.373,432.069z"/>
					</g>
				</g>
			</g>
			<g>
				<g>
					<g>
						<path style="fill:#8CBFBE;" d="M2016.239,495.824c0,0,2.739-1.242,6.184-2.803c1.113-0.505,2.516-1.141,3.151-1.428
							c0.837-0.379,1.334-0.604,1.334-0.604s1.286,3.97,3.554,9.081c0.75,1.511,2.151,3.235,4.745,3.917
							c1.37,1.485,2.818,2.753,4.33,3.69c0.694,0.43,0.733,1.573,0.119,1.965c-1.907,1.218-3.561,2.347-5.011,3.37
							c-1.322,2.376-1.501,3.932-3.155,1.42c-0.932-0.558-1.942-1.509-3.183-2.904c-0.795-0.893-1.659-1.999-2.564-3.251
							c-1.796-0.945-3.57-2.551-4.852-3.867C2018.171,499.547,2016.239,495.824,2016.239,495.824z"/>
					</g>
				</g>
			</g>
			<g>
				<g>
					<g>
						<path style="fill:#FBC343;" d="M2015.921,644.119c0,0-2.994-0.281-6.76-0.634c-1.377-0.129-3.112-0.292-3.898-0.366
							c-0.915-0.086-1.458-0.137-1.458-0.137s0,4.165-0.582,9.727c-0.273,1.957-1.108,4.405-3.395,6.18
							c-0.848,1.848-1.836,3.515-2.988,4.891c-0.529,0.632-0.213,1.723,0.493,1.893c2.194,0.529,4.119,1.056,5.818,1.55
							c2.274,1.839,3.027,3.258,3.898,0.356c0.716-0.83,1.384-2.056,2.137-3.776c0.482-1.101,0.964-2.426,1.44-3.902
							c1.444-1.748,2.671-4.215,3.513-6.169C2015.23,648.259,2015.921,644.119,2015.921,644.119z"/>
					</g>
				</g>
			</g>
			<g>
				<g>
					<g>
						<path style="fill:#8CBFBE;" d="M1868.92,796.979c0,0,2.883,0.854,6.51,1.929c1.368,0.405,3.091,0.916,3.871,1.147
							c0.881,0.261,1.404,0.416,1.404,0.416s-1.455,3.894-2.856,9.311c-0.435,1.948-0.519,4.57,0.984,7.1
							c0.143,2.044,0.48,3.971,1.071,5.687c0.271,0.788-0.404,1.69-1.12,1.586c-2.226-0.324-4.201-0.549-5.953-0.721
							c-2.831,0.849-4.054,1.887-3.869-1.156c-0.376-1.043-0.57-2.438-0.669-4.327c-0.063-1.209-0.05-2.628,0.024-4.185
							c-0.728-2.19-1.002-4.976-1.097-7.134C1868.117,801.108,1868.92,796.979,1868.92,796.979z"/>
					</g>
				</g>
			</g>
			<g>
				<g>
					<g>
						<path style="fill:#FBC343;" d="M1753.409,877.558c0,0,2.902-0.787,6.552-1.778c2.048-0.556,4.629-1.256,5.797-1.573
							c0.887-0.241,1.413-0.383,1.413-0.383s0.668,4.115,2.133,9.512c0.806,2.771,2.307,6.174,5.067,8.426
							c1.131,1.681,2.371,3.161,3.725,4.324c0.622,0.534,0.486,1.666-0.182,1.954c-2.075,0.896-3.885,1.745-5.478,2.523
							c-3.195,2.544-4.16,4.197-5.799,1.564c-0.838-0.698-1.693-1.795-2.709-3.367c-0.651-1.006-1.338-2.233-2.043-3.611
							c-1.915-2.322-3.81-5.701-5.182-8.395C1754.753,881.532,1753.409,877.558,1753.409,877.558z"/>
					</g>
				</g>
			</g>
			<g>
				<g>
					<g>
						<path style="fill:#EE6F57;" d="M2378.91,738.593c0,0-2.594-1.521-5.857-3.434c-2.476-1.451-5.594-3.28-7.006-4.108
							c-0.792-0.465-1.263-0.741-1.263-0.741s-1.679,3.823-4.448,8.681c-1.874,3.211-4.684,7.055-8.309,9.254
							c-1.511,1.338-3.077,2.451-4.674,3.228c-0.733,0.357-0.887,1.491-0.317,1.945c1.771,1.411,3.299,2.707,4.635,3.878
							c3.564,3.966,4.483,6.062,7.01,4.1c0.982-0.46,2.081-1.302,3.454-2.563c0.88-0.807,1.85-1.819,2.875-2.974
							c2.807-2.449,6.002-6.187,8.411-9.194C2376.615,742.102,2378.91,738.593,2378.91,738.593z"/>
					</g>
				</g>
			</g>
			<g>
				<g>
					<g>
						<path style="fill:#FBC343;" d="M2396.028,985.889c0,0,2.49-1.686,5.621-3.807c2.71-1.836,6.125-4.148,7.671-5.195
							c0.76-0.515,1.212-0.821,1.212-0.821s1.917,3.71,4.987,8.385c2.323,3.483,5.688,7.647,9.694,10.008
							c1.592,1.239,3.224,2.25,4.865,2.923c0.754,0.309,0.979,1.433,0.44,1.923c-1.676,1.523-3.117,2.917-4.376,4.172
							c-3.889,4.588-4.883,6.884-7.676,5.187c-1.008-0.396-2.157-1.167-3.607-2.338c-0.928-0.75-1.96-1.698-3.055-2.785
							c-3.193-2.642-6.942-6.687-9.792-9.942C2398.538,989.246,2396.028,985.889,2396.028,985.889z"/>
					</g>
				</g>
			</g>
			<g>
				<g>
					<g>
						<path style="fill:#8CBFBE;" d="M2248.37,837.862c0,0,2.423-1.781,5.471-4.021c2.482-1.824,5.609-4.122,7.024-5.163
							c0.74-0.544,1.18-0.867,1.18-0.867s2.055,3.636,5.298,8.192c2.301,3.173,5.628,6.927,9.566,8.914
							c1.637,1.178,3.305,2.127,4.97,2.737c0.764,0.28,1.032,1.395,0.512,1.905c-1.616,1.587-3.003,3.035-4.212,4.338
							c-3.437,4.534-4.245,6.795-7.03,5.155c-1.022-0.357-2.199-1.084-3.691-2.2c-0.956-0.714-2.022-1.623-3.157-2.668
							c-3.146-2.31-6.847-5.924-9.662-8.844C2251.005,841.123,2248.37,837.862,2248.37,837.862z"/>
					</g>
				</g>
			</g>
			<g>
				<g>
					<g>
						<path style="fill:#FBC343;" d="M998.59,333.401c0,0,3.545,1.518,8.003,3.426c0.451,0.193,1.02,0.437,1.277,0.547
							c1.083,0.464,1.726,0.739,1.726,0.739s-2.404,4.755-4.955,11.462c-0.181,0.8,0.167,2.066,2.369,3.889
							c-0.109,2.63,0.046,5.14,0.553,7.418c0.233,1.046-0.754,2.097-1.65,1.858c-2.784-0.743-5.263-1.323-7.468-1.802
							c-1.562,1.588-2.487,3.066-1.273-0.558c-0.33-1.387-0.378-3.197-0.235-5.622c0.091-1.553,0.311-3.362,0.625-5.339
							c-1.231-1.361-2.028-2.844-2.509-3.949C996.981,338.553,998.59,333.401,998.59,333.401z"/>
					</g>
				</g>
			</g>
			<g>
				<g>
					<g>
						<path style="fill:#708CD5;" d="M1058.812,420.736c0,0,3.336,1.885,7.532,4.257c0.834,0.471,1.885,1.065,2.36,1.334
							c1.019,0.576,1.624,0.918,1.624,0.918s-2.871,4.447-6.094,10.81c-0.516,1.253-0.631,3.158,1.094,5.683
							c-0.384,2.591-0.496,5.092-0.236,7.402c0.12,1.061-0.964,1.995-1.823,1.661c-2.667-1.037-5.051-1.879-7.174-2.59
							c-2.426,0.997-3.752,2.214-2.354-1.344c-0.179-1.408-0.036-3.205,0.36-5.59c0.253-1.527,0.66-3.294,1.179-5.217
							c-0.829-1.937-1.129-4.118-1.225-5.758C1056.683,425.661,1058.812,420.736,1058.812,420.736z"/>
					</g>
				</g>
			</g>
			<g>
				<g>
					<g>
						<path style="fill:#708CD5;" d="M2231.676,564.122c0,0,2.385-1.832,5.385-4.135c0.871-0.669,1.969-1.512,2.466-1.894
							c0.729-0.56,1.161-0.892,1.161-0.892s2.13,3.593,5.467,8.081c0.914,1.1,2.467,2.204,4.987,2.077
							c1.661,1.144,3.348,2.057,5.025,2.633c0.77,0.264,1.061,1.373,0.552,1.895c-1.583,1.621-2.939,3.098-4.12,4.426
							c-0.585,2.49-0.352,4.005-2.472,1.887c-1.029-0.336-2.22-1.038-3.736-2.122c-0.97-0.694-2.055-1.581-3.212-2.602
							c-1.812-0.321-3.696-1.22-5.081-2.005C2234.377,567.327,2231.676,564.122,2231.676,564.122z"/>
					</g>
				</g>
			</g>
			<g>
				<g>
					<g>
						<path style="fill:#8CBFBE;" d="M1378.015,350.284c0,0,4.249,0.222,9.593,0.502c0.53,0.028,1.197,0.063,1.499,0.078
							c1.298,0.068,2.069,0.108,2.069,0.108s-0.8,5.833-1.052,13.743c0.095,0.976,0.909,2.255,3.861,3.384
							c0.833,2.762,1.897,5.3,3.247,7.464c0.62,0.994-0.033,2.457-1.055,2.55c-3.176,0.289-1.744,1.435-4.219,1.778
							c-1.041,2.238-5.699,3.316-5.729-0.894c-0.844-1.31-1.545-3.164-2.269-5.728c-0.464-1.642-0.885-3.596-1.268-5.761
							c-1.772-1.015-3.134-2.35-4.029-3.393C1378.188,356.225,1378.015,350.284,1378.015,350.284z"/>
					</g>
				</g>
			</g>
			<g>
				<g>
					<g>
						<path style="fill:#8CBFBE;" d="M1546.438,349.157c0,0-4.204-0.534-9.492-1.205c-0.463-0.059-1.046-0.133-1.31-0.166
							c-1.284-0.163-2.047-0.26-2.047-0.26s-0.18,5.868-1.241,13.677c-0.245,0.855-1.241,1.857-4.313,2.355
							c-1.274,2.564-2.737,4.867-4.419,6.753c-0.772,0.866-0.374,2.417,0.613,2.69c3.067,0.846,4.459,1.259,6.829,2.034l2.608,0.572
							c1.044-1.136,2.039-2.832,3.173-5.221c0.726-1.529,1.463-3.373,2.196-5.431c1.896-0.601,3.439-1.558,4.479-2.334
							C1545.286,354.959,1546.438,349.157,1546.438,349.157z"/>
					</g>
				</g>
			</g>
			<g>
				<g>
					<g>
						<path style="fill:#9490E6;" d="M1197.213,542.634c0,0-1.14,2.783-2.574,6.283c-0.511,1.247-1.154,2.818-1.446,3.529
							c-0.348,0.85-0.555,1.355-0.555,1.355s3.958,1.276,9.074,3.539c1.73,0.84,3.748,2.363,4.718,5.077
							c1.509,1.378,2.805,2.836,3.777,4.362c0.446,0.701,1.575,0.732,1.943,0.107c1.142-1.94,2.205-3.623,3.17-5.099
							c2.387-1.558,3.947-1.824,1.437-3.533c-0.58-0.94-1.55-1.956-2.965-3.204c-0.906-0.799-2.024-1.667-3.289-2.575
							c-1.193-1.899-3.113-3.803-4.673-5.186C1200.947,544.565,1197.213,542.634,1197.213,542.634z"/>
					</g>
				</g>
			</g>
			<g>
				<g>
					<g>
						<path style="fill:#EE6F57;" d="M1666.764,587.715c0,0-1.14,2.783-2.574,6.283c-0.511,1.247-1.155,2.818-1.446,3.529
							c-0.348,0.85-0.555,1.355-0.555,1.355s3.958,1.276,9.075,3.539c1.73,0.84,3.748,2.363,4.718,5.077
							c1.509,1.378,2.805,2.836,3.777,4.361c0.446,0.701,1.575,0.732,1.943,0.108c1.142-1.94,2.205-3.623,3.17-5.099
							c2.387-1.558,3.947-1.824,1.437-3.533c-0.58-0.94-1.55-1.956-2.965-3.204c-0.906-0.799-2.024-1.667-3.289-2.575
							c-1.193-1.899-3.113-3.803-4.673-5.186C1670.498,589.646,1666.764,587.715,1666.764,587.715z"/>
					</g>
				</g>
			</g>
			<g>
				<g>
					<g>
						<path style="fill:#708CD5;" d="M677.628,542.943c0,0,2.803-1.088,6.329-2.457c2.59-1.005,5.854-2.272,7.331-2.846
							c0.856-0.332,1.365-0.53,1.365-0.53s1.202,3.982,3.369,9.139c1.488,3.445,3.841,7.658,7.218,10.384
							c1.35,1.534,2.783,2.857,4.29,3.857c0.692,0.459,0.702,1.589,0.071,1.945c-1.961,1.106-3.664,2.138-5.157,3.075
							c-3.942,3.266-5.08,5.149-7.334,2.837c-0.929-0.597-1.927-1.586-3.148-3.024c-0.782-0.921-1.629-2.055-2.513-3.336
							c-2.523-2.843-5.277-7.012-7.329-10.341C679.489,546.712,677.628,542.943,677.628,542.943z"/>
					</g>
				</g>
			</g>
			<g>
				<g>
					<g>
						<path style="fill:#FBC343;" d="M2139.671,537.074c0,0,2.283-1.958,5.154-4.42c0.552-0.473,1.246-1.069,1.561-1.338
							c0.698-0.598,1.112-0.953,1.112-0.953s2.318,3.475,5.888,7.78c0.664,0.668,1.882,1.199,4.083,0.553
							c1.719,1.054,3.452,1.876,5.156,2.361c0.783,0.223,1.132,1.315,0.652,1.863c-1.493,1.704-2.768,3.252-3.876,4.642
							c0.045,2.093,0.537,3.441-1.566,1.331c-1.045-0.28-2.272-0.918-3.842-1.92c-1.006-0.641-2.136-1.469-3.345-2.427
							c-1.534,0.14-3.064-0.159-4.173-0.476C2142.539,540.131,2139.671,537.074,2139.671,537.074z"/>
					</g>
				</g>
			</g>
			<g>
				<g>
					<g>
						<path style="fill:#FBC343;" d="M521.905,950.509c0,0,2.503,1.667,5.652,3.763c3.576,2.381,8.083,5.381,10.122,6.738
							c0.765,0.509,1.219,0.811,1.219,0.811s-2.494,3.322-5.369,8.125c-2.809,4.708-5.981,10.979-7.117,16.825
							c-0.445,2.009-0.673,3.962-0.598,5.787c0.034,0.838-0.866,1.508-1.518,1.198c-2.028-0.964-3.845-1.759-5.465-2.437
							c-7.128-2.802-10.098-3.165-10.117-6.746c-0.061-1.114,0.151-2.514,0.594-4.36c0.284-1.182,0.7-2.543,1.213-4.021
							c1.678-5.133,4.607-11.749,7.018-16.89C519.965,954.248,521.905,950.509,521.905,950.509z"/>
					</g>
				</g>
			</g>
		</g>
		<g>
			<path style="fill:#102048;" d="M974.885,831.529c-29.67,24.155-153.936,69.926-155.495,70.943
				c-6.029,3.934-9.402,10.696-15.527,14.746c-6.806,4.501-14.731,7.323-22.86,8.068c-28.496,2.613-53.322-18.35-62.965-44
				c-10.027-26.671-1.906-63.951,26.383-76.211c22.628-9.784,38.25-8.818,38.25-8.818
				c-16.105-126.828,46.302-149.456,56.368-149.939c28.959-37.733,74.57-13.748,78.959-6.179c24.56-6.039,45.333,46.442,18.155,61.5
				c-0.201,0.121-0.403,0.201-0.604,0.322c1.128,29.432,4.711,51.013,31.808,61.602
				C997.03,775.161,1004.599,807.371,974.885,831.529z"/>
			<g>
				<path style="fill:#F9B384;" d="M689.018,636.749c-0.001,0-38.978,11.226-38.978,11.226
					c-14.362-12.748-18.475-23.425-24.548-41.287c-2.379-6.997-11.817-35.094-4.213-37.363c2.588-0.772,7.228,2.236,9.882,6.82
					c-2.577-7.746-3.576-16.065-3.767-20.852c-0.118-3.62,0.827-6.11,3.319-7.059c1.988-0.772,4.196,0.979,6.227,3.743
					c0.001-0.6,1.344-7.635,4.078-8.649c2.865-1.07,5.94,2.329,8.929,8.238c0.401,0.756,0.782,1.559,1.145,2.408
					c0.01-0.7,0.114-1.362,0.198-1.978c0.459-1.819,1.412-3.115,3.073-3.747c5.128-1.954,9.217,8.536,10.587,11.685
					c5.346,12.292,11.242,24.491,14.995,37.394c1.79,6.156,4.374,12.203,5.8,18.452
					C686.221,617.862,690.097,636.114,689.018,636.749z"/>
				<path style="fill:#F9B384;" d="M686.253,594.372c2.135,15.374,0.804,28.262-2.975,28.787
					c-3.779,0.525-8.573-11.513-10.708-26.887c-2.136-15.374-3.555-27.563,2.975-28.787
					C680.798,566.501,684.117,578.998,686.253,594.372z"/>
			</g>
			<path style="fill:#F9B384;" d="M761.833,754.181l-6.88,37.56h-44.28l-6.28-8.12l-33.72-43.48c-6.8-8.76-11.68-18.88-14.32-29.72
				l-16.92-77.52l47.2-12.28l21.16,65.84c3.68,11.88,10.16,22.68,18.84,31.6L761.833,754.181z"/>
			<g>
				<path style="fill:#F9B384;" d="M1059.541,597.144c0.001,0,35.927,11.442,35.927,11.442
					c10.66-14.887,14.914-34.924,16.786-52.814c0.733-7.008,3.572-35.126-3.977-35.629c-2.57-0.171-6.248,3.606-7.747,8.429
					c0.759-7.747-0.07-15.693-0.903-20.183c-0.655-3.391-2.06-5.506-4.578-5.862c-2.011-0.298-3.694,1.797-4.999,4.796
					c-0.128-0.558-2.863-6.815-5.619-7.18c-2.89-0.39-5.031,3.421-6.562,9.546c-0.213,0.787-0.398,1.615-0.556,2.481
					c-0.157-0.648-0.393-1.242-0.602-1.797c-0.811-1.594-1.971-2.597-3.649-2.835c-5.181-0.733-6.766,9.884-7.375,13.102
					c-2.374,12.558-5.278,25.146-6.041,37.937c-0.364,6.102-0.495,12.216-0.501,18.328
					C1059.144,578.939,1058.404,596.782,1059.541,597.144z"/>
				<path style="fill:#F9B384;" d="M1053.382,558.213c3.52,14.375,9.238,25.326,12.771,24.461
					c3.533-0.865,3.543-13.219,0.023-27.594c-3.52-14.375-6.553-25.676-12.771-24.461
					C1048.403,531.596,1049.862,543.839,1053.382,558.213z"/>
			</g>
			<path style="fill:#F9B384;" d="M1005.1,719.88l24.088-36.931c3.051-4.677,5.399-9.777,6.969-15.136l22.988-90.909l48.679,3.974
				l-20.602,97.547c-0.725,4.32-1.945,8.543-3.635,12.584l-23.287,55.663l-31.544,13.874L1005.1,719.88z"/>
			<g>
				<path style="fill:#F9B384;" d="M1010.994,1463.581l-2,25.76l-15.64,202.56l-0.72,9.48l-48.24-7.52v-9.48c0-0.04,0-0.04,0-0.04
					l-0.12-206.28c0-12.8-1.48-25.48-4.44-37.92c-13.92-58.24-55.4-233.24-52.6-237.72l91.92-9.4l29.88,221.08l0.68,5.08
					C1011.714,1433.901,1012.154,1448.781,1010.994,1463.581z"/>
				<path style="fill:#6F3428;" d="M942.483,1726.689c0.958,11.422,9.027,11.275,12.196,11.275c9.138,0,93.404,0.295,94.325,0
					c0,0,0-8.917-6.632-15.66c-4.753-4.901-45.578-28.261-48.968-30.398c-26.381,13.78-49.015-7.58-49.015-7.58
					S941.488,1714.567,942.483,1726.689z"/>
			</g>
			<g>
				<path style="fill:#F9B384;" d="M925.793,1206.901c0,0-39.36,159.52-84.16,219c-5.76,7.6-11.56,13.56-17.4,17.36
					c-13.04,8.48-29.72,4.84-49.64-8.32c-33.84-22.28-77-71.88-127.56-135.44c-2.24-2.76-4.44-5.56-6.68-8.4l18.8-33.2l25.08,8.6
					l100.72,87l38.28-158.04L925.793,1206.901z"/>
				<path style="fill:#6F3428;" d="M652.804,1238.059c-9.417-6.536-14.442-0.22-16.46,2.223
					c-5.819,7.045-59.711,71.826-60.071,72.724c0,0,6.875,5.679,16.297,4.859c6.805-0.544,50.815-17.143,54.621-18.395
					c6.177-29.116,37.059-32.962,37.059-32.962S662.783,1245.012,652.804,1238.059z"/>
			</g>
			<path style="fill:#E28B6D;" d="M879.298,1350.966c2.946-10.596,6.118-21.119,9.342-31.625c3.181-10.52,6.626-20.954,9.926-31.435
				l10.427-31.272c3.6-10.384,7.218-20.761,11.122-31.046l1.487,0.484c-2.899,10.612-6.083,21.13-9.287,31.643l-9.982,31.417
				c-3.503,10.415-6.86,20.878-10.483,31.254c-3.579,10.391-7.21,20.764-11.067,31.064L879.298,1350.966z"/>
			<path style="fill:#1F3C88;" d="M1023.994,1220.381c-165.08,85.72-264.72-4.76-289.88-42.84c35.64-39.16,57.88-93.64,69.4-128.36
				c6.68-20.2,9.76-33.72,9.76-33.72l139.64-11.16l15.44-1.24c0,0,0.2,0.76,0.6,2.24c1.08,4.2,3.68,14.08,7.16,27.4
				C990.714,1088.421,1020.954,1204.581,1023.994,1220.381z"/>
			<path style="opacity:0.6;fill:#102048;" d="M976.114,1032.701c-27.4,21.44-92.8,32.28-172.6,16.48
				c6.68-20.2,9.76-33.72,9.76-33.72l139.64-11.16l16.04,1C970.033,1009.501,972.633,1019.381,976.114,1032.701z"/>
			<path style="fill:#EE6F57;" d="M1060.313,746.661c-6.08,12.72-21.88,42.68-40.12,73.48c-14.44,24.44-22.52,48.88-28.32,76.68
				c-8.32,39.8-21.16,85.16-8.76,109.68c10.64,20.96-34.88,26.16-85.2,28.84c-40.04,2.12-106.68,1.96-94.64-20.12
				c22.44-41.08-2.08-94.68-8.72-116.12c-8.88-28.72-45.48-68.96-67.28-91.12c-9.8-9.92-16.6-16.24-16.6-16.24
				s38.24-6.8,51.16-37.56c8.56,8.32,38.16,34.6,54.6,49.16c7.12,6.24,16.68,8.96,26,7.28l31.12-5.52h33.12
				c11.92,1.64,20.8,2.68,27.36,3.4c10.72,1.12,21.12-4.12,26.6-13.44l44.48-75.2
				C1005.114,719.861,1035.114,749.021,1060.313,746.661z"/>
			<path style="fill:#F9B384;" d="M887.575,840.784h-2.999c-15.432,0-27.943-12.51-27.943-27.943v-52.295h58.884v52.295
				C915.518,828.273,903.007,840.784,887.575,840.784z"/>
			<g>
				<path style="fill:#E28B6D;" d="M856.633,778.056c0,0,35.528,50.613,58.884-5.068
					C916.373,773.141,856.633,778.056,856.633,778.056z"/>
				<path style="fill:#F9B384;" d="M924.674,721.501c0.64,10.2,1.48,18.88,0.48,27.32c-0.64,5.36-2,10.56-4.6,16
					c-15.4,32.08-60.04,34.32-82.56-10.72c-19.04-38.12-10.28-77.52-10.28-77.52l50.24-21.8l48.44,23.72
					C923.474,696.061,923.954,709.781,924.674,721.501z"/>
			</g>
			<path style="fill:#102048;" d="M935.548,701.963c-39.458,6.744-60.294-3.825-78.915-25.466
				c-11.072,9.059-8.226,16.188-7.549,29.694c0.503,10.046-2.013,20.635-27.177,20.635l-10.317-36.237l11.576-26.674l50.404-20.886
				l59.312,9.563L935.548,701.963z"/>
			<g>
				<path style="fill:#0C1836;" d="M874.992,723.039c0.146,2.888-1.311,5.309-3.255,5.407s-3.638-2.163-3.784-5.051
					c-0.146-2.888,1.311-5.309,3.255-5.407C873.151,717.89,874.846,720.151,874.992,723.039z"/>
				<path style="fill:#0C1836;" d="M876.804,714.419c-1.295-1.232-2.782-1.994-4.352-2.303c-1.57-0.272-3.214-0.266-4.778,0.258
					c-1.57,0.459-3.065,1.238-4.469,2.226c-1.416,0.983-2.674,2.232-3.999,3.562l-1.082-0.645c0.663-1.884,1.801-3.607,3.269-5.071
					c1.47-1.458,3.341-2.589,5.419-3.145c2.07-0.496,4.351-0.599,6.409,0.206c2.054,0.744,3.827,2.293,4.633,4.218L876.804,714.419z
					"/>
				<path style="fill:#0C1836;" d="M900.042,720.445c0.146,2.888,1.84,5.149,3.784,5.051c1.944-0.098,3.401-2.519,3.255-5.407
					c-0.146-2.888-1.84-5.149-3.784-5.051C901.353,715.136,899.896,717.557,900.042,720.445z"/>
				<path style="fill:#0C1836;" d="M895.619,712.514c0.697-1.549,1.672-3.04,3.092-4.239c1.379-1.241,3.294-1.989,5.223-2.183
					c3.967-0.213,7.277,1.888,9.493,4.404l-0.738,1.021c-1.563-0.542-2.966-1.248-4.414-1.622c-1.427-0.415-2.813-0.687-4.135-0.616
					c-1.343,0.002-2.574,0.522-3.831,1.199c-1.254,0.7-2.406,1.75-3.682,2.792L895.619,712.514z"/>
				<path style="fill:#FFFFFF;" d="M880.738,755.595l21.274-2.897l0,0C901.304,762.906,887.128,768.51,880.738,755.595
					L880.738,755.595z"/>
				<path style="fill:#E28B6D;" d="M890.276,721.484c0.354,2.363,0.558,4.73,1.429,6.581c0.485,0.905,0.954,1.654,1.776,2.238
					l1.426,0.953l0.727,0.495c0.312,0.232,0.607,0.486,0.874,0.77c2.165,2.211,2.298,6.308-0.118,8.453
					c-2.35,2.184-5.872,1.892-7.885,0.186l0.619-1.042c2.026,0.743,4.304,0.314,5.33-1.039c1.145-1.255,0.952-3.256-0.208-4.482
					c-0.222-0.297-0.614-0.562-1.169-0.978l-1.49-1.112c-1.088-0.853-1.943-2.204-2.325-3.501c-0.83-2.644-0.564-5.163-0.199-7.534
					L890.276,721.484z"/>
				
					<ellipse transform="matrix(0.8543 -0.5197 0.5197 0.8543 -262.459 557.248)" style="opacity:0.4;fill:#FC8879;" cx="862.857" cy="746.83" rx="13.716" ry="13.716"/>
				<path style="opacity:0.4;fill:#FC8879;" d="M925.154,748.821c-0.56,0.08-1.12,0.12-1.68,0.08c-7.56-0.36-13.44-6.76-13.08-14.32
					c0.32-7.56,6.72-13.44,14.28-13.08C925.313,731.701,926.154,740.381,925.154,748.821z"/>
			</g>
			<g>
				<path style="fill:#F9B384;" d="M840.896,727.986c-8.257-6.824-17.274-7.784-21.229,0.416
					c-4.637,9.615,9.366,31.219,23.102,24.142C844.018,750.672,840.896,727.986,840.896,727.986z"/>
				<path style="fill:#E28B6D;" d="M834.988,736.039c-0.933-2.503-2.415-4.69-4.566-5.876c-2.085-1.256-4.661-1.239-6.375,0.837
					l-0.68-0.385c0.459-1.43,1.813-2.663,3.436-3.007c1.617-0.342,3.269,0.074,4.608,0.837c1.316,0.818,2.441,1.915,3.167,3.239
					c0.76,1.303,1.13,2.78,1.182,4.225L834.988,736.039z"/>
			</g>
			<g style="opacity:0.4;">
				<path style="fill:#6F3428;" d="M856.633,851.641c4.999,3.517,10.098,5.787,15.358,7.384c5.258,1.553,10.638,2.266,15.935,2.164
					c5.296-0.135,10.529-1.09,15.526-3.138c5.013-2.042,9.705-5.126,14.545-8.91c-2.112,5.723-6.212,10.861-11.581,14.405
					c-5.346,3.578-11.855,5.542-18.321,5.639c-6.475,0.145-12.898-1.449-18.502-4.422
					C864.026,861.819,859.062,857.312,856.633,851.641z"/>
			</g>
			<g style="opacity:0.4;">
				<path style="fill:#6F3428;" d="M917.997,1004.301c6.245-2.204,12.427-4.405,18.327-7.021
					c5.866-2.664,11.452-5.836,16.029-10.108c4.685-4.166,8.034-9.604,10.544-15.457c2.453-5.898,4.114-12.235,5.549-18.7
					c0.109,6.606-0.525,13.33-2.623,19.786c-2.035,6.437-5.616,12.64-10.749,17.298c-5.117,4.663-11.268,7.905-17.601,10.069
					C931.137,1002.39,924.574,1003.604,917.997,1004.301z"/>
			</g>
			<g>
				<path style="fill:#E28B6D;" d="M668.075,589.207c-2.25,4.261-4.248,8.567-4.557,13.088c-0.406,4.445,0.828,9.021,3.833,12.581
					l-0.75,0.901c-2.237-1.336-3.894-3.559-4.909-5.984c-0.98-2.45-1.352-5.128-1.135-7.76c0.561-5.242,3.087-9.985,6.573-13.521
					L668.075,589.207z"/>
				<path style="fill:#E28B6D;" d="M634.481,592.705c1.761-2.038,4.026-3.475,6.305-4.739c2.282-1.295,4.72-2.211,7.134-3.132
					c2.446-0.84,4.928-1.55,7.436-2.127c2.522-0.531,5.049-0.993,7.649-1.141l0.235,1.149c-4.764,1.844-9.623,3.216-14.34,4.925
					c-2.398,0.745-4.713,1.69-7.018,2.609c-2.287,0.959-4.55,1.977-6.617,3.327L634.481,592.705z"/>
			</g>
			<g>
				<path style="fill:#E28B6D;" d="M1067.953,545.483c4.248,2.57,7.864,6.546,9.698,11.489c0.857,2.498,1.156,5.185,0.808,7.801
					c-0.387,2.6-1.446,5.162-3.286,7.008l-0.949-0.689c2.038-4.19,2.108-8.929,0.621-13.137c-1.412-4.305-4.407-7.988-7.636-11.564
					L1067.953,545.483z"/>
				<path style="fill:#E28B6D;" d="M1100.787,546.44c-2.29-0.922-4.707-1.482-7.137-1.978c-2.44-0.455-4.894-0.932-7.391-1.197
					c-4.96-0.761-9.992-1.163-15.023-2.047l0.008-1.173c2.58-0.36,5.147-0.398,7.725-0.366c2.572,0.079,5.144,0.294,7.707,0.643
					c2.547,0.434,5.116,0.86,7.607,1.687c2.482,0.797,4.982,1.767,7.106,3.424L1100.787,546.44z"/>
			</g>
			<path style="opacity:0.4;fill:#FC8879;" d="M1010.994,1463.581l-2,25.76c-31.32-35.96-22.72-59.32,0.04-75.24l0.68,5.08
				C1011.714,1433.901,1012.154,1448.781,1010.994,1463.581z"/>
			<path style="opacity:0.4;fill:#FC8879;" d="M841.633,1425.901c-5.76,7.6-11.56,13.56-17.4,17.36
				c-13.04,8.48-29.72,4.84-49.64-8.32C796.633,1411.021,819.073,1408.341,841.633,1425.901z"/>
		</g>
		<g>
			<g>
				<path style="fill:#EE6F57;" d="M2368.523,1581.89c10.384,7.832,7.726,17.24,6.212,20.501
					c-4.317,9.296-33.761,82.653-59.857,88.566c-4.705,1.066-8.559-5.396-11.017-15.843c-1.827-7.528,0.458-60.852,0.459-65.398
					c29.193-16.982,22.699-50.189,22.382-51.724l-0.013-0.058C2326.688,1557.934,2357.489,1573.599,2368.523,1581.89z"/>
				<path style="fill:#F9B384;" d="M2293.716,1534.426l32.972,23.508l0.013,0.058c0.317,1.535,6.811,34.742-22.382,51.724
					l-39.712-33.986L2293.716,1534.426z"/>
			</g>
			<g>
				<path style="fill:#EE6F57;" d="M2184.507,1725.028c-1.087,12.961-10.243,12.794-13.839,12.794
					c-10.369,0-105.987,0.334-107.032,0c0,0,0-10.118,7.526-17.769c5.393-5.561,51.718-32.068,55.565-34.493
					c29.935,15.637,54.561-7.568,55.69-8.655l0.042-0.042C2182.458,1676.864,2185.636,1711.273,2184.507,1725.028z"/>
				<path style="fill:#F9B384;" d="M2184.758,1636.434l-2.299,40.43l-0.042,0.042c-1.129,1.087-25.755,24.291-55.69,8.655
					l7.567-51.718L2184.758,1636.434z"/>
			</g>
			<path style="fill:#102048;" d="M2215.469,1226.262l17.655,166.348c0.713,6.716,2.896,13.193,6.395,18.97l69.078,114.06
				l-53.165,78.183l-90.032-130.445L2215.469,1226.262z"/>
			<path style="fill:#1F3C88;" d="M2241.914,1158.181c-11.04,30.44-17.52,62.4-19.68,94.72l-26.52,396.08h-88.84l10.32-519
				l1.16-57.96l131.72-11.52c2.28,6.44,3.8,13.04,4.6,19.84C2257.553,1104.421,2251.874,1130.701,2241.914,1158.181z"/>
			<path style="fill:#6F3428;" d="M2056.326,665.545c-9.243-7.783-13.693-21.383-8.218-33.389c1.884-4.131,6.301-7.038,10.822-7.156
				c-9.557-9.484-4.157-19.179-1.54-24.206c1.802-3.462,4.421-6.616,7.901-8.382c4.414-2.238,11.622-3.022,19.928-0.841
				c-0.596-8.556,3.685-11.276,4.811-12.511c3.339-3.662,7.749-6.355,12.558-7.571c6.857-1.733,16.76-0.737,21.633,5.001
				c0.88,1.036,2.089,4.751,3.392,5.027c0.964,0.204,1.675-0.832,2.212-1.658c3.027-4.659,9.032-6.46,14.587-6.615
				c4.696-0.131,9.688,0.794,13.17,3.948c3.482,3.154,4.777,8.988,1.839,12.654c7.836-4.276,18.132-4.749,25.394,0.442
				s9.897,16.568,4.309,23.529c4.423-0.174,8.657,2.344,11.368,5.842c2.711,3.498,4.073,7.867,4.798,12.234
				c2.769,16.67-3.845,34.815-17.312,45.022c-6.936,5.257-15.467,8.379-24.157,8.842c-6.91,0.368-13.791-0.899-20.594-2.161
				c-11.999-2.226-24.084-4.476-35.44-8.943c-8.233-3.238-16.008-7.633-23.04-13c-2.816-2.149-4.083,9.517-7.834,10.033
				C2069.07,672.764,2061.844,670.191,2056.326,665.545z"/>
			<g>
				<g>
					<path style="fill:#E28B6D;" d="M2015.961,896.731c0,0-31.209,35.238-31.209,35.238s-41.473-35.645-61.339-67.256
						c-0.374-0.685-0.87-1.317-1.244-2.002c-2.582-4.37-4.751-8.652-6.335-12.715c0.008-0.119-0.048-0.183-0.044-0.243
						c-0.531-2.793-0.024-4.977,1.879-6.527c2.476-2.051,3.092-0.548,7.783,3.665c-4.33-9.125-7.242-14.358-9.219-19.707
						c-1.465-4.055-1.311-7.221,1.161-9.212c1.967-1.606,5.11-0.435,8.426,1.947c-0.22-0.68-1.287-9.138,1.435-11.292
						c2.85-2.266,7.582,0.451,13.139,6.041c0.731,0.709,1.459,1.477,2.182,2.305c-0.246-0.796-0.372-1.584-0.503-2.312
						c-0.149-2.228,0.453-4.045,2.1-5.373c5.087-4.098,13.574,6.272,16.284,9.334c10.574,11.949,21.736,23.59,30.731,36.818
						c4.291,6.31,8.341,12.783,12.254,19.333C2004.748,876.955,2016.949,895.615,2015.961,896.731z"/>
				</g>
				<path style="fill:#E28B6D;" d="M1984.752,931.969c0,0,88.193,76.013,118.788,72.839c30.595-3.174,39.333-67.333,39.333-67.333
					l-126.912-40.744l-34.154,12.279L1984.752,931.969z"/>
			</g>
			<polygon style="fill:#F9B384;" points="2175.833,684.741 2175.833,791.901 2115.714,791.901 2115.714,695.181 			"/>
			<g>
				<path style="fill:#E28B6D;" d="M2155.914,723.821c-2.56,9.12-12.24,29.32-40.2,34.08v-31.36L2155.914,723.821z"/>
				<path style="fill:#F9B384;" d="M2165.394,709.661c-11.16,21.6-32.76,38.32-57.12,30.64c-12.6-3.96-19.88-13.6-24.24-27.16
					c-2.44-7.76-3.96-16.76-4.92-26.76c-1.48-15.08-1.72-32.32-2.2-50.6l46.68-30.64l46,25.76
					C2169.594,630.901,2176.553,688.061,2165.394,709.661z"/>
			</g>
			<path style="opacity:0.6;fill:#102048;" d="M2254.674,1080.341c-21.92,31.04-84.32,48.12-137.48,49.64l1.16-57.96l131.72-11.52
				C2252.354,1066.941,2253.874,1073.541,2254.674,1080.341z"/>
			<path style="fill:#708CD5;" d="M2249.033,1077.581c-38.44,20.48-88.64,23.6-142.6,20.64c-6.72,1.24-12.92-3.84-13-10.68
				c-0.44-21.72-0.84-43.4-1.28-65.12c-0.52-25.4-1-50.84-1.48-76.24c-0.08-4.88-0.2-9.76-0.36-14.64
				c-1.04-31.88-3.24-64.12-2.28-95.84c1-32.88,17.6-54.52,48.28-65.76c21.8-8,49.16-13.12,65.76,7.92
				c28.44,36.08,31.24,84.36,41.04,127.32c10.6,46.32,17.24,93.44,22.36,140.64
				C2266.874,1058.581,2264.354,1067.821,2249.033,1077.581z"/>
			<path style="opacity:0.3;fill:#1F3C88;" d="M2190.194,936.461c-4.88,32.36-25.96,90.72-98.04,85.96
				c-0.52-25.4-1-50.84-1.48-76.24c-0.08-4.88-0.2-9.76-0.36-14.64L2190.194,936.461z"/>
			<path style="fill:#F9B384;" d="M2194.674,931.941c0,0-7.92,26.72-23.84,43.84c-4.8,5.2-10.32,9.48-16.6,11.92
				c-7.16,2.8-18.48,2.24-32.4-1.2c-32.08-7.88-78.16-30.92-120-63.2l-12.68-58.48c40.32-5.56,93.12,31.64,136.52,49
				L2194.674,931.941z"/>
			<path style="fill:#6F3428;" d="M2174.474,643.741c1.48-4.4,0.92-9.44-1.48-13.4c-2.4-4-6.6-6.84-11.16-7.6
				c-0.64-2.76-2.88-4.96-5.44-6.24c-2.56-1.28-5.44-1.76-8.24-2.32c-1.36-0.28-2.72-0.56-3.96-1.2c-1.72-0.84-3.08-2.24-4.56-3.48
				c-5.8-4.88-13.84-6.96-21.32-5.6c-4.16,0.8-8.12,2.6-12.32,3.2c-5.16,0.76-10.76-0.2-15.4,2.24c-3.84,2-6.2,5.96-9.48,8.72
				c-3.68,3.12-8.96,5.44-9.68,10.2c-0.2,1.2-0.08,2.56-0.84,3.52c-0.64,0.84-1.76,1.12-2.72,1.56c-2.08,0.92-3.4,2.32-4.2,4.04
				c-2,4.2-0.52,10.08,2.04,13.84c2.64,3.88,6.28,6.04,10.24,6.72c2.56,1,5.32,1.44,8.08,1.12c6.52-0.72,12.68-6.04,13.72-12.6
				c0.04,2.48,1.2,4.96,3,6.68c2.227,2.128,5.213,3.282,8.24,3.64c6.288,0.744,13.855-0.486,16.56-7.08
				c-0.36,0.88,4.44,5.16,5.16,5.84c1,0.92,2.08,1.8,3.2,2.6c1.24,0.92,2.52,1.76,3.84,2.56c1,0.56,2.04,1.12,3.08,1.6
				c5.28,2.52,11,3.88,17,3.2c8.36-0.92,15.52-5.44,20.48-11.92C2178.354,649.981,2176.994,646.341,2174.474,643.741z"/>
			<g>
				<path style="fill:#F9B384;" d="M2030.615,885.975c0,0.001-28.766,37.259-28.766,37.259s-43.778-32.773-65.726-62.975
					c-0.419-0.658-0.957-1.256-1.376-1.914c-2.871-4.186-5.322-8.313-7.176-12.26c0-0.119-0.06-0.179-0.06-0.239
					c-0.718-2.751-0.359-4.964,1.435-6.638c2.333-2.213,5.927,1.571,10.891,5.458c-6.28-7.416-11.071-16.164-13.403-21.367
					c-1.735-3.947-1.794-7.117,0.538-9.27c1.854-1.734,5.069-0.778,8.538,1.375c-0.266-0.664-1.899-9.03,0.672-11.362
					c2.691-2.452,7.595-0.06,13.516,5.143c0.777,0.658,1.555,1.375,2.333,2.153c-0.299-0.777-0.478-1.555-0.658-2.273
					c-0.299-2.213,0.18-4.067,1.734-5.502c4.799-4.431,13.966,5.344,16.875,8.217c11.354,11.21,23.274,22.074,33.139,34.666
					c4.706,6.007,9.182,12.193,13.528,18.465C2018.096,866.999,2031.525,884.795,2030.615,885.975z"/>
				<path style="fill:#F9B384;" d="M2011.345,845.657c7.724,20.222,10.546,37.929,6.304,39.549
					c-4.242,1.62-13.942-13.46-21.666-33.682c-7.724-20.222-13.527-36.322-6.304-39.549
					C1995.491,809.378,2003.621,825.435,2011.345,845.657z"/>
			</g>
			<path style="opacity:0.3;fill:#1F3C88;" d="M2194.667,814.808c22.874,40.667,26.559,109.393,16.374,136.833l-7.315-2.274
				L2194.667,814.808z"/>
			<path style="fill:#708CD5;" d="M2125.681,913.829c0,0,1.394-102.433,39.719-109.401c37.11-6.747,48.081,18.117,38.325,144.939
				C2202.332,949.367,2125.681,913.829,2125.681,913.829z"/>
			<path style="fill:none;" d="M2065.233,634.061c-0.72,1.04-1.24,2.16-1.56,3.32"/>
			<path style="fill:#1F3C88;" d="M2203.402,950.079c-6.702-2.525-13.306-5.267-19.887-8.059c-6.6-2.75-13.084-5.754-19.632-8.618
				c-6.496-2.978-12.97-6.006-19.414-9.098c-6.417-3.151-12.826-6.32-19.111-9.763l0.648-1.423
				c6.723,2.48,13.321,5.234,19.911,8.006c6.563,2.831,13.097,5.727,19.608,8.671c6.459,3.059,12.982,5.978,19.39,9.151
				c6.427,3.131,12.83,6.312,19.135,9.71L2203.402,950.079z"/>
			<path style="fill:#1F3C88;" d="M2154.879,810.257c-1.812,1.813-3.666,3.051-5.311,4.656c-0.851,0.756-1.644,1.566-2.379,2.427
				c-0.787,0.813-1.486,1.702-2.144,2.625c-2.758,3.578-4.947,7.599-6.669,11.822c-3.436,8.45-5.789,17.401-7.237,26.525
				c-0.733,4.556-1.402,9.141-1.963,13.736c-0.399,4.621-0.932,9.227-1.223,13.865c-0.729,9.269-0.981,18.572-1.49,27.904
				l-1.563,0.023c-0.274-4.675-0.389-9.358-0.58-14.045c-0.095-4.687,0.105-9.378,0.144-14.074
				c0.367-9.383,1.222-18.771,2.771-28.087c1.691-9.273,4.019-18.557,8.06-27.231c2.014-4.323,4.486-8.5,7.651-12.15
				c3.052-3.688,7.252-6.589,10.82-9.094L2154.879,810.257z"/>
			<path style="opacity:0.4;fill:#FC8879;" d="M2170.833,975.781c-4.8,5.2-10.339,9.432-16.6,11.92
				c-7.501,2.981-22.419,2.04-37.64-2.589C2125.627,963.141,2162.124,964.391,2170.833,975.781z"/>
			<g>
				<path style="fill:#E28B6D;" d="M1950.119,808.777c4.921,4.125,9.402,8.692,13.883,13.253c2.196,2.323,4.362,4.672,6.487,7.057
					c2.089,2.417,4.167,4.844,6.074,7.417l-0.879,0.776c-2.498-2.045-4.824-4.236-7.139-6.437c-2.279-2.233-4.517-4.501-6.726-6.797
					c-4.327-4.675-8.656-9.344-12.543-14.454L1950.119,808.777z"/>
				<path style="fill:#E28B6D;" d="M1935.64,814.515c5.342,4.852,10.224,10.126,15.109,15.394c2.397,2.676,4.763,5.378,7.09,8.116
					c2.29,2.77,4.569,5.55,6.678,8.478l-0.879,0.776c-2.703-2.402-5.236-4.953-7.758-7.513c-2.485-2.593-4.931-5.221-7.346-7.875
					c-4.739-5.392-9.481-10.78-13.762-16.588L1935.64,814.515z"/>
				<path style="fill:#E28B6D;" d="M1938.163,841.699c3.208,2.342,5.977,5.127,8.747,7.905c1.34,1.431,2.65,2.89,3.92,4.384
					c1.234,1.526,2.456,3.062,3.506,4.744l-0.88,0.776c-1.642-1.153-3.112-2.453-4.571-3.762c-1.422-1.342-2.804-2.718-4.157-4.122
					c-2.615-2.892-5.23-5.778-7.407-9.107L1938.163,841.699z"/>
			</g>
			<g>
				<path style="fill:#2D1510;" d="M2123.989,677.035c0.221,2.988,2.03,5.289,4.041,5.141c2.011-0.148,3.462-2.691,3.242-5.679
					c-0.221-2.988-2.03-5.289-4.041-5.141C2125.219,671.505,2123.768,674.048,2123.989,677.035z"/>
				<path style="fill:#2D1510;" d="M2119.957,667.776c1.613-3.35,5.543-5.276,9.381-4.956c1.918,0.198,3.735,0.981,5.214,2.076
					c1.466,1.141,2.56,2.589,3.348,4.151l-0.925,0.721c-1.34-0.984-2.528-2.005-3.866-2.684c-1.304-0.716-2.665-1.182-4.062-1.306
					c-1.396-0.22-2.815,0.047-4.217,0.461c-1.395,0.459-2.714,1.222-3.918,2.218L2119.957,667.776z"/>
				<path style="fill:#2D1510;" d="M2097.903,677.585c0.221,2.988-1.231,5.53-3.242,5.679c-2.011,0.148-3.82-2.153-4.041-5.141
					c-0.22-2.988,1.231-5.53,3.242-5.679C2095.874,672.296,2097.683,674.597,2097.903,677.585z"/>
				<path style="fill:#2D1510;" d="M2101.213,668.535c-2.724-1.651-5.83-2.641-8.667-2.19c-1.417,0.17-2.753,0.695-3.989,1.525
					c-1.255,0.82-2.329,1.975-3.519,3.17l-1.021-0.577c0.566-1.697,1.514-3.31,2.904-4.64c1.426-1.271,3.292-2.168,5.241-2.425
					c3.917-0.401,7.778,1.277,9.896,4.324L2101.213,668.535z"/>
				<path style="fill:#FFFFFF;" d="M2122.342,707.92l-22.938-0.742l0,0C2104.374,717.974,2112.54,721.141,2122.342,707.92
					L2122.342,707.92z"/>
				<path style="fill:#E28B6D;" d="M2110.376,674.68c0.639,2.746,1.216,5.687,0.464,8.776c-0.354,1.508-1.242,3.075-2.381,4.064
					c-1.005,0.948-2.372,1.984-2.936,2.788c-1.385,1.826-1.186,4.512,0.743,5.831c1.811,1.41,4.767,1.315,7.055,0.031l0.58,0.789
					c-2.212,2.028-5.889,2.806-8.86,0.992c-1.449-0.862-2.522-2.485-2.768-4.22c-0.238-1.733,0.229-3.515,1.247-4.885
					c1.176-1.436,2.197-2.003,3.26-2.967c1.024-0.845,1.566-1.847,2.035-3.029c0.824-2.397,0.657-5.231,0.591-8.045L2110.376,674.68
					z"/>
				
					<ellipse transform="matrix(0.974 -0.2267 0.2267 0.974 -102.7322 503.9657)" style="opacity:0.4;fill:#FC8879;" cx="2142.742" cy="699.246" rx="13.804" ry="13.804"/>
				<path style="opacity:0.4;fill:#FC8879;" d="M2084.033,713.141c-2.44-7.76-3.96-16.76-4.92-26.76
					c6.68-0.08,12.6,4.68,13.76,11.48C2093.994,704.541,2090.154,710.901,2084.033,713.141z"/>
			</g>
			<g>
				<path style="fill:#F9B384;" d="M2163.914,672.854c4.292-4.979,9.96-8.026,17.168-6.97c10.193,1.494,8.584,40.825-16.095,33.357
					C2160.158,699.242,2163.914,672.854,2163.914,672.854z"/>
				<path style="fill:#E28B6D;" d="M2172.01,679.666c-0.653-2.493-0.467-5.632,1.872-7.886c1.187-1.06,3.022-1.508,4.531-1.075
					c1.502,0.466,2.616,1.464,3.311,2.622l-0.7,0.684c-1.064-0.604-2.092-1.089-3.053-1.165c-0.955-0.089-1.766,0.202-2.457,0.801
					c-1.498,1.198-2.033,3.582-2.527,5.968L2172.01,679.666z"/>
			</g>
		</g>
		
			<line style="fill:none;stroke:#102048;stroke-width:4.8;stroke-miterlimit:10;" x1="435.576" y1="1738.048" x2="2589.341" y2="1738.048"/>
		<g>
			<g>
				<path style="fill:#F9B384;" d="M1369.063,1634.12l-11.014,39.264c11.245,23.813,37.697,32.236,62.579,9.667l8.938-42.146
					L1369.063,1634.12z"/>
				<path style="fill:#102048;" d="M1358.049,1673.384l-21.214,75.628c-3.798,16.306,14.446,43.416,22.726,42.683h0
					c13.208,0.733,39.995-10.882,43.793-27.188l17.274-81.455C1389.437,1701.558,1373.445,1691.288,1358.049,1673.384z"/>
			</g>
			<g>
				<path style="fill:#F9B384;" d="M1525.806,1624.255l2.582,45.403l0.047,0.047c9.689,20.187,50.439,37.687,62.54,9.719
					l-8.498-58.08L1525.806,1624.255z"/>
				<path style="fill:#102048;" d="M1526.087,1723.746c1.221,14.555,11.503,14.367,15.541,14.367c11.644,0,119.024,0.375,120.198,0
					c0,0,0-11.363-8.452-19.955c-6.057-6.245-58.08-36.012-62.399-38.735c-10.101,13.552-40.101,13.552-62.54-9.719l-0.047-0.047
					C1528.388,1669.657,1524.819,1708.298,1526.087,1723.746z"/>
			</g>
			<path style="fill:#F9B384;" d="M1304.363,1000.119c13.968,11.819,56.409,35.994,75.749,30.085
				c19.34-5.91,10.207-50.499,10.207-50.499l-62.318-18.266L1304.363,1000.119z"/>
			<path style="fill:#102048;" d="M1556.988,590.605c-0.129,0.129-0.301,0.258-0.473,0.387
				c-27.936,20.758-48.006-18.266-62.705-21.833c-14.656-3.61-33.48,10.272-46.03,1.676c0,0-7.779,52.133-2.407,69.324
				c-80.283-31.718-36.531-112.044-14.57-102.89c15.386-53.723,68.034-29.827,91.157-21.231
				C1575.082,492.83,1584.365,569.331,1556.988,590.605z"/>
			<path style="fill:#F9B384;" d="M1810.112,555.854c-1.64-0.544,5.285-26.076,6.346-28.936c2.674-7.209,6.74-13.536,14.316-17.583
				c19.426-10.376,43.003-12.302,65.242-13.202c13.938-0.564,45.822-2.369,53.183,8.306c6.913,10.026-10.566,17.03-18.589,18.899
				c-15.385,3.583-32.791,3.871-45.947,12.603c-12.119,8.044-23.418,24.397-19.637,38.081
				C1865.026,574.023,1810.198,555.883,1810.112,555.854z"/>
			<polygon style="fill:#102048;" points="1634.936,966.99 1601.986,1643.179 1517.463,1646.044 1520.328,1262.106 
				1440.102,1650.342 1351.281,1647.477 1424.344,945.501 			"/>
			<path style="fill:#FFFFFF;" d="M1634.234,1009.781c-2.8,1.88-6,3.72-9.52,5.52c-17.68,9.12-43.96,17.2-73.08,21.76
				c-20.8,3.24-43.08,4.68-64.76,3.32c-25.2-1.48-49.48-6.72-69.68-17.16l1.48-20.24l20-274.16l145.04-6.44L1634.234,1009.781z"/>
			<path style="fill:#F9B384;" d="M1502.062,746.548L1502.062,746.548c-17.796,0-32.185-14.497-32.053-32.292l-3.046-65.304h64.109
				l3.042,65.781C1533.984,732.342,1519.672,746.548,1502.062,746.548z"/>
			<path style="fill:#E28B6D;" d="M1467.899,673.007c13.475,21.044,43.808,36.3,64.008-2.018L1467.899,673.007z"/>
			<path style="fill:#F9B384;" d="M1546.354,636.581c-1.52,15.36-6.16,28.2-15.8,35.52c-20.08,15.32-59.64,15.6-80.08-17.16
				c-20.4-32.8-18.8-90.28-18.8-90.28l48.88-22l50.52,2.68l9.12,22.56c2.76,13.6,5.16,28.08,6.2,41.92
				C1547.073,619.181,1547.153,628.261,1546.354,636.581z"/>
			<g>
				<rect x="1868.524" y="278.427" style="fill:#BB9132;" width="25.121" height="186.025"/>
				<polygon style="fill:#FBC343;" points="1932.994,315.381 1945.234,386.821 1881.073,353.061 1816.914,386.821 1825.194,338.701 
					1829.194,315.381 1777.273,264.781 1848.994,254.341 1881.073,189.341 1913.153,254.341 1929.354,256.701 1984.914,264.781 				
					"/>
				<path style="fill:#FBC343;" d="M1943.434,482.501h-124.68l1.6-7.24l9.32-41.76c1.24-5.44,6.04-9.32,11.6-9.32h79.6
					c5.56,0,10.4,3.88,11.6,9.32L1943.434,482.501z"/>
				<path style="opacity:0.3;fill:#BB9132;" d="M1932.994,315.381l12.24,71.44l-64.16-33.76l-64.16,33.76l8.28-48.12
					c57.08-10.8,88.16-50.2,104.16-82l55.56,8.08L1932.994,315.381z"/>
				<path style="opacity:0.9;fill:#FFFFFF;" d="M1851.963,271.862c0.958,4.454-5.57,9.636-14.58,11.574s-17.091-0.103-18.049-4.558
					c-0.958-4.455,5.57-9.636,14.58-11.574C1842.924,265.367,1851.005,267.408,1851.963,271.862z"/>
				<path style="opacity:0.3;fill:#BB9132;" d="M1943.434,482.501h-124.68l1.6-7.24c32.84-2.24,63.92-27.64,78.68-51.08h21.84
					c5.56,0,10.4,3.88,11.6,9.32L1943.434,482.501z"/>
				<path style="fill:#BB9132;" d="M1954.355,497.288h-146.54c-6.145,0-11.126-4.981-11.126-11.126l0,0
					c0-6.145,4.981-11.126,11.126-11.126h146.54c6.145,0,11.126,4.981,11.126,11.126l0,0
					C1965.481,492.307,1960.5,497.288,1954.355,497.288z"/>
				<g>
					<path style="fill:#FBC343;" d="M1775.649,174.498c7.87,4.813,14.786,10.649,21.469,16.733c3.32,3.066,6.535,6.244,9.591,9.592
						c3.064,3.34,5.994,6.823,8.58,10.675l-2.134,2.286c-4.021-2.315-7.698-4.998-11.24-7.825
						c-3.551-2.819-6.942-5.807-10.229-8.908c-6.53-6.249-12.827-12.747-18.171-20.267L1775.649,174.498z"/>
					<path style="fill:#FBC343;" d="M1988.672,176.784c-5.344,7.52-11.641,14.018-18.171,20.267
						c-3.287,3.101-6.679,6.089-10.229,8.908c-3.543,2.827-7.219,5.51-11.24,7.825l-2.134-2.286
						c2.586-3.852,5.516-7.335,8.58-10.675c3.056-3.348,6.271-6.526,9.591-9.592c6.684-6.084,13.599-11.92,21.469-16.733
						L1988.672,176.784z"/>
					<path style="fill:#FBC343;" d="M1959.961,225.254c3.633-3.976,7.911-6.711,12.346-9.145c2.233-1.188,4.536-2.239,6.947-3.085
						c2.405-0.855,4.901-1.537,7.63-1.771l1.443,2.775c-1.758,2.1-3.75,3.752-5.831,5.23c-2.076,1.488-4.26,2.77-6.515,3.915
						c-4.539,2.233-9.235,4.165-14.576,4.855L1959.961,225.254z"/>
					<path style="fill:#FBC343;" d="M1800.783,228.028c-5.341-0.691-10.037-2.622-14.577-4.855
						c-2.255-1.145-4.438-2.427-6.515-3.915c-2.082-1.478-4.073-3.13-5.831-5.23l1.443-2.775c2.729,0.234,5.225,0.915,7.63,1.771
						c2.411,0.845,4.714,1.897,6.946,3.085c4.435,2.433,8.713,5.169,12.346,9.145L1800.783,228.028z"/>
				</g>
			</g>
			<g style="opacity:0.3;">
				<path style="fill:#1F3C88;" d="M1484.373,757.577c4.177,2.468,7.993,4.578,11.892,5.816c3.862,1.303,7.693,1.648,11.394,1.182
					c3.707-0.475,7.349-1.816,10.911-3.902c3.603-2.056,6.987-4.854,10.815-7.863c-0.964,4.745-3.364,9.168-6.912,12.796
					c-3.543,3.596-8.466,6.258-13.83,6.906c-5.343,0.692-10.893-0.65-15.162-3.502
					C1489.198,766.164,1485.973,762.159,1484.373,757.577z"/>
			</g>
			<path style="opacity:0.3;fill:#1F3C88;" d="M1624.714,1015.301c-17.68,9.12-43.96,17.2-73.08,21.76
				c-16.52-50.56-24.12-153-13.28-258.32L1624.714,1015.301z"/>
			<path style="opacity:0.3;fill:#1F3C88;" d="M1486.874,1040.381c-25.2-1.48-49.48-6.72-69.68-17.16l1.48-20.24l60.56-231.4
				C1497.234,868.141,1496.874,982.981,1486.874,1040.381z"/>
			<path style="fill:#1F3C88;" d="M1533.938,706.615c61.608-7.976,122.264-14.808,181.594-21.989
				c10.297-1.246,19.258-7.582,23.905-16.854l63.472-126.623l73.421,17.549l-54.064,141.025
				c-13.786,35.961-43.49,63.481-80.397,74.486l-103.62,30.897c0,0-7.922,82.174,52.248,247.64
				c-2.149,12.893-53.723,29.368-105.296,27.219C1560.846,1057.76,1551.845,1009.968,1533.938,706.615z"/>
			<path style="fill:#1F3C88;" d="M1470.01,714.256c0,0-54.746-1.202-127.414,10.701c-23.564,3.86-45.171,15.584-61.037,33.429
				c-29.5,33.179-64.664,84.99-85.312,116.62c-10.396,15.927-8.288,36.932,5.083,50.459l90.14,97.754l55.872-59.095l-65.542-71.63
				l73.779-88.105c0,0,12.894-5.73,22.205,1.433c2.865,9.312,4.117,119.59-36.713,279.325
				c16.475,12.894,100.282,20.773,118.906,3.582C1464.275,1082.282,1505.647,882.708,1470.01,714.256z"/>
			<path style="fill:#0C1836;" d="M1482.159,609.89c0.341,3.574-1.333,6.657-3.738,6.886s-4.632-2.481-4.973-6.055
				c-0.341-3.574,1.333-6.657,3.738-6.886C1479.591,603.606,1481.818,606.317,1482.159,609.89z"/>
			<path style="fill:#0C1836;" d="M1484.01,599.194c-3.563-1.841-7.937-1.895-11.701-0.988c-3.875,0.906-7.041,3.242-9.999,6.509
				l-1.377-0.74c0.713-2.257,1.973-4.453,3.825-6.15c1.818-1.737,4.17-2.902,6.605-3.485c2.443-0.562,4.995-0.614,7.399-0.006
				c2.38,0.557,4.773,1.674,6.35,3.753L1484.01,599.194z"/>
			<path style="fill:#0C1836;" d="M1513.083,605.287c0.341,3.574,2.567,6.284,4.973,6.055c2.405-0.23,4.079-3.313,3.738-6.886
				c-0.341-3.574-2.567-6.285-4.973-6.055C1514.415,598.63,1512.742,601.714,1513.083,605.287z"/>
			<path style="fill:#0C1836;" d="M1506.124,594.428c1.1-2.292,3.001-3.958,5.07-5.235c2.076-1.301,4.484-2.095,7.001-2.35
				c2.514-0.245,5.183,0.212,7.439,1.436c2.282,1.185,4.008,3.117,5.141,5.202l-1.213,0.987c-3.522-2.659-7.09-4.028-11.027-3.659
				c-3.865,0.339-7.933,1.901-11.119,4.499L1506.124,594.428z"/>
			<path style="fill:#FFFFFF;" d="M1486.611,645.228l33.706-5.739l0,0C1519.733,655.774,1497.467,665.446,1486.611,645.228
				L1486.611,645.228z"/>
			<path style="fill:#102048;" d="M1556.988,590.605c-0.129,0.129-0.301,0.258-0.473,0.387
				c-27.936,20.758-48.006-18.266-62.705-21.833c-14.656-3.61-33.48,10.272-46.03,1.676c0,0-16.125,35.556-2.407,69.324
				l-24.412-35.715c0,0-2.965-39.798-3.782-39.798c0-0.602,25.271-20.114,25.271-20.114l49.683-18.567l50.757,8.596l8.037,29.053
				L1556.988,590.605z"/>
			<path style="fill:#F9B384;" d="M1442.251,611.765c-13.61,0-22.084,2.363-20.773,16.758c1.074,11.793,13.968,32.896,31.875,17.379
				L1442.251,611.765z"/>
			<g style="opacity:0.6;">
				<path style="fill:#708CD5;" d="M1510.646,1305.099c2.015-12.192,4.115-24.367,6.391-36.506
					c2.199-12.155,4.671-24.255,6.993-36.386l7.51-36.282c2.631-12.068,5.282-24.133,8.227-36.138l1.533,0.307
					c-1.908,12.213-4.112,24.367-6.334,36.518l-7.051,36.374c-2.531,12.089-4.913,24.207-7.568,36.271
					c-2.578,12.079-5.331,24.123-8.17,36.15L1510.646,1305.099z"/>
			</g>
			<path style="fill:#E28B6D;" d="M1440.787,630.302c-0.425-1.971-0.874-3.86-1.788-5.398c-0.919-1.511-2.217-2.633-3.746-2.848
				c-1.49-0.341-3.139,0.15-4.418,1.288c-1.336,1.077-2.288,2.725-3.052,4.561l-1.154-0.208c0.024-2.17,0.769-4.45,2.389-6.242
				c1.591-1.777,4.245-2.855,6.804-2.317c2.535,0.544,4.601,2.454,5.44,4.626c0.905,2.167,0.983,4.425,0.697,6.537H1440.787z"/>
			<path style="fill:#E28B6D;" d="M1498.936,604.321c0.489,3.338,0.862,6.719,2.318,9.384c0.792,1.301,1.634,2.376,3.013,3.168
				c1.451,0.924,2.77,1.389,4.449,2.849c1.479,1.414,2.389,3.425,2.456,5.519c0.059,2.098-0.882,4.232-2.421,5.542
				c-3.143,2.742-7.645,2.562-10.665,0.612l0.526-1.048c2.961,1.057,6.472,0.573,8.328-1.457c2.013-1.947,1.707-5.16-0.297-7.038
				c-0.828-0.837-2.651-1.784-4.03-2.702c-1.544-0.94-2.909-2.612-3.631-4.322c-1.51-3.497-1.422-7.088-1.219-10.46
				L1498.936,604.321z"/>
			<path style="opacity:0.4;fill:#FC8879;" d="M1546.354,636.581c-1.4,0.48-2.92,0.72-4.48,0.72c-7.8,0-14.12-6.32-14.12-14.12
				c0-7.8,6.32-14.12,14.12-14.12c1.56,0,3.08,0.24,4.52,0.76C1547.073,619.181,1547.153,628.261,1546.354,636.581z"/>
			
				<ellipse transform="matrix(1 -0.0045 0.0045 1 -2.8678 6.6354)" style="opacity:0.4;fill:#FC8879;" cx="1465.379" cy="637.282" rx="14.109" ry="14.109"/>
		</g>
	</g>
</g>
</svg>
